<svg width="18" height="25" viewBox="0 0 18 25" fill="none" xmlns="http://www.w3.org/2000/svg">
<path d="M3.99922 0.800781H13.9992C15.1992 0.800781 16.2992 1.80078 16.2992 3.10078V19.1008C16.2992 20.3008 15.2992 21.4008 13.9992 21.4008H3.99922C2.79922 21.4008 1.69922 20.4008 1.69922 19.1008V3.00078C1.79922 1.80078 2.79922 0.800781 3.99922 0.800781Z" stroke="#060F42" stroke-width="1.5"/>
<path d="M8.99922 10.8008C10.7992 10.8008 12.2992 12.3008 12.2992 14.1008C12.2992 15.9008 10.7992 17.4008 8.99922 17.4008C7.19922 17.4008 5.69922 15.9008 5.69922 14.1008C5.79922 12.2008 7.19922 10.8008 8.99922 10.8008Z" stroke="#060F42" stroke-width="1.5"/>
<path d="M8.99922 3.80078C10.1992 3.80078 11.2992 4.80078 11.2992 6.10078C11.2992 7.30078 10.2992 8.40078 8.99922 8.40078C7.79922 8.40078 6.69922 7.40078 6.69922 6.10078C6.79922 4.80078 7.79922 3.80078 8.99922 3.80078Z" stroke="#060F42" stroke-width="1.5"/>
<path d="M14.4008 21.4024H10.8008V21.9988C10.8008 22.6988 11.4008 23.2988 12.1008 23.2988H13.1008C13.8008 23.2988 14.4008 22.6988 14.4008 21.9988V21.4024ZM14.4008 21.4024C14.2008 21.4024 14.5008 21.4024 14.4008 21.4024Z" stroke="#060F42" stroke-width="1.5"/>
<path d="M7.6 21.3985H4V21.9948C4 22.6948 4.6 23.2948 5.3 23.2948H6.3C7 23.2948 7.6 22.6948 7.6 21.9948V21.3985ZM7.6 21.3985C7.4 21.3985 7.7 21.3985 7.6 21.3985Z" stroke="#060F42" stroke-width="1.5"/>
</svg>
