<svg width="24" height="24" viewBox="0 0 24 24" fill="none" xmlns="http://www.w3.org/2000/svg">
<g clip-path="url(#clip0_7874_6223)">
<path d="M12.9992 0.800781H20.9992C22.1992 0.800781 23.2992 1.80078 23.2992 3.10078V21.1008C23.2992 22.3008 22.2992 23.4008 20.9992 23.4008H12.9992C11.7992 23.4008 10.6992 22.4008 10.6992 21.1008V3.00078C10.7992 1.80078 11.7992 0.800781 12.9992 0.800781Z" stroke="#060F42" stroke-width="1.5"/>
<path d="M20.6992 5.5H13.6992V7H20.6992V5.5Z" fill="#060F42"/>
<path d="M20.6992 8.5H13.6992V10H20.6992V8.5Z" fill="#060F42"/>
<path d="M17 19C17.5523 19 18 18.5523 18 18C18 17.4477 17.5523 17 17 17C16.4477 17 16 17.4477 16 18C16 18.5523 16.4477 19 17 19Z" fill="#060F42"/>
<path d="M10.499 7.30078H2.99922C1.79922 7.30078 0.699219 8.30078 0.699219 9.60078V16.5008C0.699219 17.7008 1.69922 18.8008 2.99922 18.8008H10.499V7.30078Z" stroke="#060F42" stroke-width="1.5"/>
<path d="M10.7016 21V19H10.1203H8.37656H7.60156V19.8V20.8V21.6H8.37656H10.1203H10.7016C10.7016 21.3 10.7016 21.2 10.7016 21Z" stroke="#060F42" stroke-width="1.5"/>
<path d="M10.8 21H5.8C5.3 21 5 21.3 5 21.8C5 22.3 5.3 22.6 5.8 22.6H11.4C11 22.1 10.8 21.6 10.8 21Z" fill="#060F42"/>
</g>
<defs>
<clipPath id="clip0_7874_6223">
<rect width="24" height="24" fill="white"/>
</clipPath>
</defs>
</svg>
