<svg width="24" height="18" viewBox="0 0 24 18" fill="none" xmlns="http://www.w3.org/2000/svg">
<path d="M20.3198 4.47653L20.3506 4.64662L20.4254 4.74881C20.4292 4.75699 20.4342 4.76795 20.4405 4.78211C20.4654 4.83849 20.4994 4.92043 20.5422 5.02838C20.6275 5.24303 20.7388 5.5377 20.8681 5.88857C21.1262 6.58903 21.4495 7.49576 21.7666 8.39556C22.0834 9.29469 22.3931 10.1841 22.6236 10.849C22.7388 11.1814 22.8342 11.4575 22.9008 11.6505L22.9779 11.8742L22.9981 11.933L23.0029 11.947C23.7033 14.108 22.8695 16.0694 21.354 16.607C19.8466 17.1418 17.9359 16.1002 17.2395 13.9593L17.2256 13.9163L17.2065 13.8753L16.0346 11.3524L15.8329 10.9184H15.3544H8.55704H8.07778L7.87644 11.3533L6.78261 13.7161L6.76843 13.7467L6.75706 13.7785C5.97788 15.9562 4.05718 16.9713 2.64435 16.4501L2.63149 16.4453L2.61846 16.4411C1.20146 15.9764 0.284527 13.9522 0.986929 11.7858L0.99194 11.7711L1.01155 11.7135L1.08615 11.4946L1.35367 10.7106C1.57576 10.0604 1.87346 9.19014 2.17599 8.31004C2.47862 7.42968 2.78572 6.54053 3.02673 5.85198C3.14732 5.50744 3.25075 5.21491 3.32855 4.99944C3.39184 4.82414 3.4284 4.72794 3.44266 4.69043C3.44813 4.67603 3.45031 4.67028 3.44946 4.67203L3.49499 4.57871L3.51346 4.47653C3.83522 2.69598 5.535 1.25 7.61948 1.25H16.2138C18.2983 1.25 19.9981 2.69598 20.3198 4.47653Z" stroke="#060F42" stroke-width="1.5" stroke-miterlimit="10"/>
<rect x="13" y="5" width="2" height="2" rx="1" fill="#060F42"/>
<rect x="17" y="5" width="2" height="2" rx="1" fill="#060F42"/>
<rect x="15" y="3" width="2" height="2" rx="1" fill="#060F42"/>
<rect x="15" y="7" width="2" height="2" rx="1" fill="#060F42"/>
<line x1="8" y1="4" x2="8" y2="7.5" stroke="#060F42" stroke-width="1.5" stroke-linecap="round"/>
<line x1="9.75" y1="5.75" x2="6.25" y2="5.75" stroke="#060F42" stroke-width="1.5" stroke-linecap="round"/>
</svg>
