<svg width="22" height="19" viewBox="0 0 22 19" fill="none" xmlns="http://www.w3.org/2000/svg">
<path d="M19.7758 2.21256L19.776 2.2128C20.2438 2.67577 20.6145 3.22506 20.8672 3.8291C21.12 4.43312 21.25 5.08027 21.25 5.73364C21.25 6.38701 21.12 7.03416 20.8672 7.63818C20.6145 8.24222 20.2438 8.7915 19.776 9.25447L19.7759 9.2546L18.6603 10.3593L10.9997 17.9445L3.33917 10.3593L2.22355 9.2546C1.27918 8.31951 0.75 7.05283 0.75 5.73364C0.75 4.41445 1.27918 3.14777 2.22355 2.21268C3.16817 1.27734 4.45091 0.750557 5.78997 0.750557C7.12903 0.750557 8.41177 1.27734 9.35639 2.21268L10.472 3.31734C10.7643 3.60675 11.2351 3.60675 11.5274 3.31734L12.643 2.21268L12.6432 2.21256C13.1108 1.74935 13.6663 1.38152 14.2783 1.13043C14.8903 0.879333 15.5466 0.75 16.2095 0.75C16.8724 0.75 17.5286 0.879333 18.1406 1.13043C18.7526 1.38152 19.3082 1.74935 19.7758 2.21256Z" stroke="#01579B" stroke-width="1.5" stroke-linecap="round" stroke-linejoin="round"/>
</svg>
